<svg width="16" height="16" viewBox="0 0 16 16" fill="none" xmlns="http://www.w3.org/2000/svg">
<g clip-path="url(#clip0_3336_1499)">
<path d="M5.65609 6.38277C5.75309 6.48027 5.88058 6.52877 6.00808 6.52877C6.13558 6.52877 6.26308 6.48027 6.36009 6.38277C6.55458 6.18827 6.55458 5.87277 6.36009 5.67827L2.37759 1.69177C2.18309 1.49727 1.86808 1.49727 1.67358 1.69177C1.47908 1.88627 1.47908 2.20177 1.67358 2.39627L5.65609 6.38277Z" fill="#9FA2A5"/>
<path d="M8.70355 8.02377L14.326 2.39627C14.5205 2.20177 14.5205 1.88627 14.326 1.69177C14.1315 1.49727 13.8165 1.41127 13.622 1.60627L7.64805 7.49977H7.50005V7.67227L1.60005 13.6513C1.40555 13.8458 1.44255 14.1613 1.63655 14.3558C1.73355 14.4533 1.87955 14.5018 2.00705 14.5018C2.13455 14.5018 2.27105 14.4533 2.36805 14.3558L7.99505 8.72877L13.6195 14.3563C13.7165 14.4538 13.8455 14.5023 13.9725 14.5023C14.0995 14.5023 14.228 14.4538 14.325 14.3563C14.5195 14.1618 14.52 13.8463 14.3255 13.6518L8.70355 8.02377Z" fill="#9FA2A5"/>
</g>
<defs>
<clipPath id="clip0_3336_1499">
<rect width="16" height="16" fill="white"/>
</clipPath>
</defs>
</svg>
