<svg width="14" height="14" viewBox="0 0 14 14" fill="none" xmlns="http://www.w3.org/2000/svg">
<path d="M7.70355 7.02377L13.326 1.39627C13.5205 1.20177 13.5205 0.886271 13.326 0.691771C13.1315 0.497271 12.8165 0.411271 12.622 0.606271L6.64805 6.49977H6.50005V6.67227L0.600047 12.6513C0.405547 12.8458 0.442547 13.1613 0.636547 13.3558C0.733547 13.4533 0.879547 13.5018 1.00705 13.5018C1.13455 13.5018 1.27105 13.4533 1.36805 13.3558L6.99505 7.72877L12.6195 13.3563C12.7165 13.4538 12.8455 13.5023 12.9725 13.5023C13.0995 13.5023 13.228 13.4538 13.325 13.3563C13.5195 13.1618 13.52 12.8463 13.3255 12.6518L7.70355 7.02377Z" fill="#9FA2A5"/>
</svg>
