<svg width="13" height="14" viewBox="0 0 13 14" fill="none" xmlns="http://www.w3.org/2000/svg">
<path d="M4.18477 4.88668C4.28177 4.98418 4.40927 5.03268 4.53677 5.03268C4.66427 5.03268 4.79177 4.98418 4.88877 4.88668C5.08327 4.69218 5.08327 4.37668 4.88877 4.18218L0.906272 0.19568C0.711772 0.0011797 0.396771 0.0011797 0.202271 0.19568C0.00777149 0.39018 0.00777149 0.70568 0.202271 0.90018L4.18477 4.88668Z" fill="#9FA2A5"/>
<path d="M7.23223 6.52768L12.8547 0.900177C13.0492 0.705677 13.0492 0.390177 12.8547 0.195677C12.6602 0.0011771 12.3452 -0.0848229 12.1507 0.110177L6.17673 6.00368H6.02873V6.17618L0.128733 12.1552C-0.0657666 12.3497 -0.0287667 12.6652 0.165233 12.8597C0.262233 12.9572 0.408233 13.0057 0.535733 13.0057C0.663233 13.0057 0.799733 12.9572 0.896733 12.8597L6.52373 7.23268L12.1482 12.8602C12.2452 12.9577 12.3742 13.0062 12.5012 13.0062C12.6282 13.0062 12.7567 12.9577 12.8537 12.8602C13.0482 12.6657 13.0487 12.3502 12.8542 12.1557L7.23223 6.52768Z" fill="#9FA2A5"/>
</svg>
