<svg width="16" height="16" viewBox="0 0 16 16" fill="none" xmlns="http://www.w3.org/2000/svg">
<path d="M15.805 14.8625L11.825 10.8825C12.909 9.55668 13.442 7.86494 13.3137 6.15719C13.1853 4.44945 12.4055 2.85636 11.1355 1.70744C9.86556 0.558515 8.20258 -0.0583337 6.49055 -0.0155203C4.77853 0.0272932 3.14845 0.726493 1.93749 1.93746C0.726524 3.14842 0.0273237 4.7785 -0.0154897 6.49052C-0.0583031 8.20255 0.558545 9.86553 1.70747 11.1355C2.85639 12.4055 4.44948 13.1853 6.15722 13.3136C7.86497 13.442 9.55671 12.909 10.8825 11.825L14.8625 15.805C14.9897 15.9186 15.1555 15.9793 15.326 15.9745C15.4965 15.9697 15.6587 15.8998 15.7793 15.7793C15.8999 15.6587 15.9697 15.4965 15.9745 15.326C15.9793 15.1555 15.9187 14.9897 15.805 14.8625ZM6.66753 12C5.61215 12.0005 4.58034 11.688 3.70262 11.1019C2.8249 10.5159 2.14071 9.68271 1.73661 8.70777C1.33251 7.73282 1.22664 6.65992 1.43242 5.6248C1.63819 4.58968 2.14635 3.63885 2.89261 2.89258C3.63888 2.14632 4.58971 1.63816 5.62483 1.43239C6.65996 1.22661 7.73285 1.33248 8.7078 1.73658C9.68274 2.14068 10.5159 2.82487 11.102 3.70259C11.688 4.58031 12.0005 5.61212 12 6.6675C11.998 8.08115 11.4356 9.43634 10.436 10.436C9.43637 11.4356 8.08119 11.998 6.66753 12Z" fill="#9FA2A5"/>
</svg>
